<svg xmlns="http://www.w3.org/2000/svg" viewBox="0 0 512 512" width="512" height="512">
  <rect width="512" height="512" rx="100" fill="#1cc88a" />
  <path fill="#ffffff" d="M256 64C150 64 64 150 64 256s86 192 192 192 192-86 192-192S362 64 256 64zm0 320c-70.6 0-128-57.4-128-128S185.4 128 256 128s128 57.4 128 128-57.4 128-128 128z" />
  <path fill="#ffffff" d="M256 160c-52.9 0-96 43.1-96 96s43.1 96 96 96 96-43.1 96-96-43.1-96-96-96zm24 136h-48v-16h-16v-16h16v-32h-16v-16h16v-16h32v16h16v16h-16v32h16v16h-16v16z" />
</svg>
